<?xml version="1.0" standalone="no"?>
<!DOCTYPE svg PUBLIC "-//W3C//DTD SVG 20010904//EN"
 "http://www.w3.org/TR/2001/REC-SVG-20010904/DTD/svg10.dtd">
<svg version="1.0" xmlns="http://www.w3.org/2000/svg"
 width="281.000000pt" height="281.000000pt" viewBox="0 0 281.000000 281.000000"
 preserveAspectRatio="xMidYMid meet">
<metadata>
Created by potrace 1.11, written by Peter Selinger 2001-2013
</metadata>
<g transform="translate(0.000000,281.000000) scale(0.100000,-0.100000)"
fill="#000000" stroke="none">
<path d="M1346 2735 c-92 -104 -220 -180 -414 -244 -89 -29 -271 -73 -357 -86
-22 -3 -56 -8 -75 -11 -19 -3 -46 -7 -60 -9 -14 -3 -56 -8 -95 -11 -38 -4 -81
-8 -95 -9 -14 -2 -56 -3 -93 -4 -38 -1 -66 -4 -64 -8 3 -5 8 -33 12 -63 5 -44
35 -200 49 -255 1 -5 8 -36 15 -67 7 -32 13 -58 14 -58 4 0 151 40 164 45 9 3
8 17 -2 57 -8 29 -17 67 -20 83 -18 91 -18 95 -2 95 16 0 226 27 262 34 11 2
36 6 55 10 289 52 531 139 690 246 l55 37 30 -29 c66 -64 223 -143 376 -187
41 -12 88 -26 104 -31 55 -16 264 -53 375 -65 30 -3 69 -8 85 -10 17 -2 47 -4
69 -4 45 -1 45 4 -1 -137 l-30 -91 84 -30 c46 -17 85 -28 87 -24 18 30 141
439 135 445 -2 2 -69 7 -149 10 -80 3 -156 8 -170 10 -14 2 -54 7 -90 11 -36
3 -74 8 -85 10 -11 3 -33 6 -50 9 -237 33 -465 108 -590 194 -44 31 -103 104
-132 163 -10 22 -21 39 -24 39 -4 0 -32 -29 -63 -65z"/>
<path d="M1185 2133 c-31 -8 -36 -16 -26 -50 11 -39 -2 -65 -18 -35 -6 11 -11
31 -11 43 0 19 -4 21 -31 15 -17 -3 -36 -6 -41 -6 -5 0 -6 -19 -2 -45 5 -36 3
-45 -9 -45 -8 0 -29 -3 -46 -6 -26 -6 -31 -3 -31 13 0 36 -22 51 -58 41 -28
-7 -31 -11 -22 -28 5 -10 10 -31 10 -46 0 -22 -2 -25 -15 -14 -8 7 -15 20 -15
29 0 35 -15 44 -53 32 -34 -11 -35 -13 -26 -44 11 -38 4 -46 -46 -50 -35 -2
-39 0 -47 30 -8 30 -10 31 -39 23 -41 -12 -39 -9 -29 -53 4 -22 4 -39 -1 -43
-11 -6 -40 56 -32 69 5 8 -54 0 -69 -9 -4 -3 -5 -22 -2 -43 6 -37 5 -38 -26
-45 -52 -10 -57 -8 -64 28 l-6 33 -40 -10 c-32 -9 -37 -14 -29 -28 13 -26 11
-61 -3 -57 -7 3 -17 19 -22 36 -8 28 -12 31 -35 25 -40 -9 -52 -22 -41 -43 14
-26 12 -40 -5 -40 -18 0 -18 0 1 -80 9 -36 17 -73 19 -82 15 -70 75 -278 116
-403 175 -525 406 -897 694 -1121 226 -174 444 -152 666 68 223 222 450 671
652 1293 78 239 97 309 87 315 -6 4 -6 18 0 40 11 39 7 45 -37 55 -30 6 -33 4
-33 -18 0 -23 -25 -55 -35 -45 -3 2 0 19 5 38 5 19 8 35 6 37 -2 2 -20 7 -40
10 -29 5 -36 3 -36 -11 0 -10 -4 -26 -10 -36 -8 -16 -14 -16 -45 -6 -46 16
-46 17 -36 54 9 30 8 32 -27 41 -38 11 -42 10 -46 -11 -5 -30 -18 -58 -27 -58
-12 0 -12 32 0 63 9 23 7 26 -29 35 -38 9 -38 9 -45 -24 -6 -37 -12 -39 -67
-24 -35 10 -36 12 -27 42 10 38 5 45 -39 54 -29 6 -32 4 -32 -18 0 -29 -28
-72 -31 -48 -3 27 -1 45 6 62 5 13 -1 19 -27 26 -38 11 -48 7 -48 -16 0 -38
-16 -46 -59 -33 -23 6 -41 13 -41 14 0 1 4 17 9 34 11 36 9 38 -35 47 -29 6
-31 5 -43 -34 -6 -22 -16 -40 -21 -40 -12 0 -12 37 -1 65 7 16 2 22 -22 33
-42 17 -44 16 -51 -23 -8 -40 -10 -41 -88 -19 -53 15 -63 15 -123 0 -37 -9
-70 -14 -74 -11 -5 2 -11 18 -14 35 -4 16 -10 29 -14 29 -5 -1 -17 -3 -28 -6z
m265 -236 c30 -9 66 -18 80 -21 14 -3 43 -10 65 -16 22 -6 47 -12 56 -14 9 -3
34 -10 55 -16 38 -11 160 -44 422 -113 74 -19 137 -38 140 -42 4 -3 -21 -88
-54 -188 -190 -565 -395 -970 -588 -1163 -130 -130 -229 -162 -342 -110 -214
98 -477 455 -642 871 -78 196 -193 568 -179 581 5 6 160 52 200 59 9 2 65 17
125 34 59 16 159 43 222 60 63 17 171 46 240 65 69 19 130 33 135 32 6 -2 35
-10 65 -19z"/>
<path d="M982 1687 l-393 -128 6 -42 c4 -23 13 -69 22 -102 8 -33 17 -71 19
-85 9 -49 103 -317 139 -395 127 -275 302 -480 480 -561 168 -77 339 17 516
281 114 170 243 456 343 758 25 76 46 140 46 142 0 2 -111 40 -247 84 -137 44
-313 102 -393 129 l-145 48 -393 -129z"/>
</g>
</svg>
